# xmcd
#
# Track frame offsets:
# 150
# 17117
# 26927
# 37515
# 51197
# 66590
# 85207
# 100482
# 114505
# 124810
# 136707
# 151005
# 163250
# 176475
# 191827
# 200432
# 214617
# 235072
# 249825
# 260107
# 276767
# 287817
# 302167
# 313425
# 325365
#
# Disc length: 4485 seconds
#
#
# Revision: 1
# Processed by: cddbd v1.5.2PL0 Copyright (c) Steve Scherf et al.
# Submitted via: FreeRIP 2.951 
#
DISCID=71118319
DTITLE=Various Artist - Root Damage - CD 1
DYEAR=2003
DGENRE=Blues
TTITLE0=R.L. Burnside - Georgia Woman
TTITLE1=Billy Childish and Dan Melchior - Length Of Pipe
TTITLE2=South Filthy - Hot Dog
TTITLE3=Chris Wilson - Dark Haired Girl
TTITLE4=Soledad Brothers - Shakey Puddin'
TTITLE5=Compulsive Gamblers - Rock 'n' Roll Nurse
TTITLE6=Mr. Airplane Man - Sun Sinking Low
TTITLE7=Junkyard Dogs - Lightning Bar Blues
TTITLE8=T. Tex Edwards - You Ain't Never Gonna Live
TTITLE9=Elmore Williams - Hoopin' And Hollerin'
TTITLE10=Speedball Baby - Blackish Man
TTITLE11=Mark Spitz Freestyle - Three Shiny Nails
TTITLE12=Reigning Sound - As Long
TTITLE13=Kirby Grips - Needless
TTITLE14=Earl Lee Grace - Kitchen Girl
TTITLE15=Cool Jerks - Man And A Woman
TTITLE16=Gun Club - Preaching The Blues
TTITLE17=Deadly Snakes - Love Undone
TTITLE18=Jack Oblivian - I'm Too Old For You
TTITLE19=Holly Golightly - Anyway You Like It
TTITLE20=Blackhands - Black Girl
TTITLE21=Junior Kimbough - You're Gonna Find Your Mistake
TTITLE22=Monsieur Jeffrey Evans - Otto Wood
TTITLE23=Cedell Davis - Keep On Snatchin' It Back
TTITLE24=Grey Oblivian and The Tip Tops - Watching My Baby Get Ready
EXTD=
EXTT0=
EXTT1=
EXTT2=
EXTT3=
EXTT4=
EXTT5=
EXTT6=
EXTT7=
EXTT8=
EXTT9=
EXTT10=
EXTT11=
EXTT12=
EXTT13=
EXTT14=
EXTT15=
EXTT16=
EXTT17=
EXTT18=
EXTT19=
EXTT20=
EXTT21=
EXTT22=
EXTT23=
EXTT24=
PLAYORDER=
